<svg version="1.1" id="Layer_1" xmlns="http://www.w3.org/2000/svg" xmlns:xlink="http://www.w3.org/1999/xlink" x="0px" y="0px"
	 width="100%" viewBox="0 0 1972 597" enable-background="new 0 0 1972 597" xml:space="preserve">
<path fill="none" opacity="1.000000" stroke="none" 
	d="
M1973.000000,485.000000 
	C1973.000000,522.652405 1973.000000,560.304749 1973.000000,598.000000 
	C1641.973145,598.000000 1310.946289,598.000000 979.626465,597.611694 
	C991.980347,596.778687 1003.026062,592.232117 1012.498230,583.952881 
	C1023.998718,573.900757 1032.228149,561.336914 1038.947266,547.821411 
	C1045.204346,535.235413 1051.015747,522.419922 1056.739868,509.579102 
	C1063.308960,494.843262 1069.612305,479.988220 1075.945923,465.148590 
	C1083.478638,447.499268 1090.946899,429.822235 1098.391968,412.135651 
	C1102.454590,402.484375 1107.080078,392.998810 1110.209839,383.047882 
	C1112.836670,374.696075 1111.762329,369.167908 1100.360840,369.016602 
	C1093.532349,368.925964 1086.701050,368.940582 1079.872314,369.018127 
	C1074.051392,369.084229 1069.414062,371.221100 1067.008179,376.923645 
	C1065.003540,381.675079 1062.918701,386.393860 1060.988037,391.175018 
	C1052.959961,411.055115 1044.987915,430.957764 1036.972046,450.842804 
	C1033.234131,460.115509 1029.443115,469.366882 1025.374512,479.369324 
	C1018.370911,461.476105 1011.774536,444.338715 1004.958496,427.289154 
	C998.076172,410.073822 991.164185,392.863739 983.769409,375.867096 
	C982.654724,373.305023 979.007080,370.576691 976.246460,370.236664 
	C967.929688,369.212250 959.474426,369.142212 951.069214,369.044739 
	C939.158875,368.906586 938.560913,374.612915 940.763184,383.129730 
	C942.162476,388.541626 944.827271,393.629578 946.961792,398.847565 
	C953.979919,416.004303 960.970398,433.172638 968.056152,450.301483 
	C975.329224,467.883026 982.410706,485.553345 990.162170,502.923218 
	C993.682556,510.811798 994.605286,522.108704 1009.820435,519.712830 
	C1003.554932,529.391663 998.621338,537.732483 992.986267,545.568726 
	C981.113220,562.079468 966.541382,566.105774 948.256165,561.488831 
	C935.502502,558.268616 935.689270,560.739258 935.927368,570.966003 
	C936.168945,581.347839 942.180908,590.965698 952.082947,594.121704 
	C954.550049,594.908020 956.702759,596.680664 959.000000,598.000000 
	C639.772217,598.000000 320.544464,598.000000 1.000000,598.000000 
	C1.000000,494.640015 1.000000,391.279724 1.359020,287.586792 
	C2.741215,289.963135 3.414015,292.874359 4.842465,295.349457 
	C17.290392,316.917725 30.229176,338.210907 42.295277,359.988556 
	C50.743374,375.236176 63.286301,382.911255 80.312836,382.935425 
	C175.123627,383.069885 269.934692,383.003143 364.745667,382.992432 
	C370.531342,382.991791 375.064148,380.858337 378.104431,375.599915 
	C382.639465,367.756226 387.541931,360.125854 392.150146,352.323303 
	C402.593292,334.641113 412.886169,316.869904 423.369354,299.211609 
	C430.004578,288.034882 420.470062,277.713654 410.440216,277.759369 
	C320.130066,278.171082 229.817215,278.030273 139.505264,277.940765 
	C132.514496,277.933838 125.524544,277.085449 118.174927,276.604675 
	C124.355484,265.945923 130.336365,255.423096 136.515213,245.017807 
	C150.634933,221.239929 164.910492,197.554520 179.011093,173.765350 
	C191.546173,152.617371 203.946640,131.389496 216.364426,110.172264 
	C218.167679,107.091187 220.376114,105.877808 224.228973,105.883087 
	C330.703644,106.029045 437.178558,105.982002 543.653442,106.047226 
	C549.681274,106.050911 554.786072,104.352829 557.459656,98.865219 
	C559.899292,93.857796 559.568604,88.854416 556.392334,83.641510 
	C544.362061,63.897266 532.886780,43.815258 520.904480,24.041039 
	C518.022766,19.285435 514.685364,14.274991 510.314941,11.083421 
	C504.515045,6.848017 497.495483,4.282867 491.000000,1.000002 
	C617.693542,1.000000 744.387024,1.000000 871.365356,1.393893 
	C867.737610,2.190628 863.820801,2.555772 859.913391,3.003003 
	C844.994629,4.710507 830.695557,8.854954 817.290405,15.449409 
	C805.214172,21.390160 794.589478,29.425070 786.157471,40.236202 
	C778.483215,50.075733 772.797241,60.884590 769.050354,72.688080 
	C763.839966,89.102043 762.802551,106.019981 762.878662,123.170975 
	C762.965271,142.686218 766.059814,161.323700 774.485657,179.095230 
	C783.621826,198.364853 797.604858,212.741501 816.129944,223.051712 
	C833.942932,232.965622 853.381775,237.469437 873.328186,238.724945 
	C889.330017,239.732193 905.572144,239.244186 921.547241,237.728683 
	C939.091736,236.064285 956.238586,231.669937 972.709839,225.025909 
	C979.852539,222.144775 986.908325,219.182098 986.949951,209.978577 
	C987.084106,180.320435 987.033020,150.661209 986.969910,121.002594 
	C986.958252,115.511505 982.601501,111.050186 977.168091,111.035767 
	C948.675903,110.960136 920.182556,110.914429 891.692871,111.193924 
	C889.786438,111.212624 886.467346,113.806839 886.236572,115.528992 
	C883.759155,134.014084 893.907593,149.061417 913.339417,149.004959 
	C923.114197,148.976562 932.889160,149.000000 942.799561,149.000000 
	C942.799561,163.273849 942.799561,177.037994 942.799561,191.824951 
	C929.899109,194.217163 917.095825,197.771576 904.109985,198.661942 
	C891.544556,199.523499 878.652466,198.573151 866.158752,196.709473 
	C853.252502,194.784225 841.265015,189.503250 831.637756,180.113861 
	C818.260498,167.067047 812.406616,150.475616 811.188538,132.454987 
	C809.948120,114.104385 810.496643,95.658920 818.043213,78.318153 
	C824.131714,64.327606 833.907166,53.957752 848.182800,47.884186 
	C856.928528,44.163319 865.826721,41.203102 875.343140,41.058289 
	C890.513794,40.827435 905.817932,39.792362 920.833252,41.345047 
	C939.823303,43.308758 957.992798,49.516167 975.573364,57.114635 
	C980.359741,59.183319 982.722778,57.704803 982.971497,52.444267 
	C983.120850,49.285488 983.319275,46.075050 982.940125,42.955349 
	C981.790588,33.497124 978.538086,24.574800 970.931213,18.709948 
	C960.717468,10.835223 948.905823,5.902238 935.980591,3.970871 
	C930.299255,3.121938 924.658936,1.998702 919.000000,1.000003 
	C1270.236084,1.000000 1621.472290,1.000000 1973.000000,1.000000 
	C1973.000000,155.026749 1973.000000,309.053680 1972.634277,463.404480 
	C1970.824219,453.567261 1964.572266,446.578552 1956.639160,441.006500 
	C1943.417847,431.720245 1927.813721,429.176239 1912.452271,425.949005 
	C1904.244751,424.224670 1896.028076,422.346283 1888.063354,419.770996 
	C1885.326538,418.886078 1882.168823,416.076996 1881.264160,413.439911 
	C1879.508545,408.322754 1883.937500,406.315918 1887.893921,405.024048 
	C1899.203369,401.331085 1911.004517,401.246307 1922.577026,402.234253 
	C1935.014038,403.295990 1947.302612,406.055420 1959.671753,407.971771 
	C1965.677490,408.902222 1967.996826,406.748840 1967.999878,400.585236 
	C1968.000610,399.085358 1967.841553,397.565765 1968.025391,396.088806 
	C1969.352173,385.434174 1959.162354,375.291016 1951.421997,373.122650 
	C1942.413696,370.599152 1933.215088,367.804596 1923.975098,367.270203 
	C1908.046753,366.348999 1891.912842,365.972504 1876.239502,370.090485 
	C1864.228149,373.246246 1853.229492,378.354828 1846.164429,389.356964 
	C1839.507080,399.723907 1838.964844,411.267212 1840.536987,422.931885 
	C1841.579834,430.668396 1845.316895,437.535736 1851.286743,442.595367 
	C1862.269043,451.903534 1875.899658,455.035645 1889.542603,458.027222 
	C1901.055664,460.551758 1912.579224,463.074951 1923.977051,466.060669 
	C1930.195435,467.689606 1932.227661,470.781525 1931.993774,475.976624 
	C1931.756958,481.238281 1927.968628,483.830231 1923.749512,484.848419 
	C1913.270996,487.377106 1902.685791,489.235748 1891.763550,487.094513 
	C1880.148804,484.817535 1868.417358,483.140717 1856.789185,480.926849 
	C1852.698120,480.147919 1848.786255,478.466919 1844.749146,477.355225 
	C1838.774292,475.709839 1836.240479,477.648071 1836.016113,483.959198 
	C1835.921387,486.622253 1835.918823,489.294373 1836.014404,491.957397 
	C1836.405518,502.863983 1843.837280,514.174011 1853.529053,516.635376 
	C1863.252808,519.104858 1873.263428,521.340271 1883.229370,521.761414 
	C1900.502808,522.491516 1917.902832,522.984497 1935.000488,519.013489 
	C1945.616333,516.547913 1955.372070,512.530579 1963.056396,504.443604 
	C1968.292236,498.933472 1970.577881,491.937164 1973.000000,485.000000 
M425.944489,415.998779 
	C318.623779,415.999176 211.303101,415.999603 103.982399,416.000061 
	C102.815865,416.000061 101.644569,415.931824 100.483543,416.011993 
	C89.129074,416.795837 82.821815,428.736664 88.539841,438.089050 
	C101.366562,459.068237 113.944626,480.199249 126.693375,501.226379 
	C134.351639,513.857483 145.489197,520.947632 160.415329,520.959045 
	C262.570129,521.037048 364.725189,521.079773 466.879700,520.897827 
	C479.477570,520.875427 489.943207,515.155090 496.958008,504.576172 
	C503.569458,494.605469 509.463379,484.155609 515.584900,473.864166 
	C525.258850,457.600311 534.924438,441.330750 544.462463,424.987091 
	C549.073853,417.085297 553.387024,409.009491 558.133911,400.378143 
	C561.000305,395.844757 563.965515,391.370422 566.716064,386.767853 
	C578.990967,366.227783 591.224426,345.662842 603.434631,325.084259 
	C615.064697,305.483307 626.671265,285.868347 638.242798,266.232788 
	C646.492188,252.234558 647.635315,237.636093 639.610901,223.438141 
	C627.358032,201.758820 614.234558,180.573059 601.608887,159.102341 
	C594.080200,146.299469 582.670776,139.207596 568.227234,139.160614 
	C472.752289,138.850098 377.275787,138.994873 281.799805,139.011749 
	C275.455566,139.012878 270.341736,141.467682 266.995300,147.049118 
	C261.806030,155.704163 256.602844,164.351227 251.477722,173.044205 
	C241.969040,189.172409 232.652939,205.416336 222.960266,221.432709 
	C219.427048,227.271057 219.166962,232.639954 222.754318,238.352158 
	C225.595154,242.875671 229.764359,244.054565 234.864807,244.050888 
	C330.674011,243.981689 426.483246,244.000000 522.292480,244.000000 
	C524.157043,244.000000 526.021667,244.000000 528.481201,244.000000 
	C494.242340,301.946899 460.549988,358.968781 425.944489,415.998779 
M1718.000000,467.500000 
	C1718.000000,457.500580 1718.227905,447.494781 1717.948120,437.503204 
	C1717.497925,421.428925 1728.180420,406.555878 1744.268921,403.447571 
	C1754.444092,401.481781 1766.432007,402.857147 1772.406738,414.273865 
	C1775.229980,419.668884 1776.682129,426.353485 1776.800781,432.491577 
	C1777.280518,457.314606 1776.743530,482.156342 1777.129517,506.982635 
	C1777.278687,516.580627 1778.984985,519.642212 1789.870239,519.966858 
	C1796.031128,520.150635 1802.202026,520.008362 1808.368408,519.997925 
	C1816.063721,519.984924 1819.995605,516.035400 1819.997437,508.293823 
	C1820.004028,480.961639 1820.119507,453.628510 1819.908936,426.297943 
	C1819.861328,420.124847 1819.209229,413.841309 1817.887695,407.816498 
	C1814.854126,393.986267 1808.155762,382.341370 1795.536499,374.960571 
	C1779.351562,365.494171 1761.776245,365.304230 1744.128418,368.548431 
	C1730.350342,371.081238 1718.554810,377.907928 1710.062744,388.593781 
	C1705.038208,383.879517 1700.798462,378.589996 1695.400146,375.084351 
	C1679.690308,364.882385 1662.240845,365.482147 1644.703735,368.745117 
	C1632.984131,370.925720 1622.863647,376.427032 1614.441040,384.875549 
	C1612.789551,382.535919 1611.483521,380.261505 1609.777832,378.342224 
	C1602.317505,369.948364 1592.295166,368.954285 1581.965454,369.006226 
	C1576.000732,369.036224 1574.010254,371.008698 1574.008179,376.987854 
	C1573.992920,420.986023 1573.989868,464.984192 1574.009888,508.982361 
	C1574.013184,516.453796 1577.634399,519.967285 1585.220215,519.995056 
	C1591.719849,520.018860 1598.223267,520.136658 1604.718628,519.968323 
	C1614.765137,519.708069 1615.723022,515.913574 1616.977051,508.361359 
	C1617.138672,507.388184 1617.000000,506.365143 1617.000000,505.365173 
	C1617.000122,481.366180 1616.613037,457.359222 1617.105957,433.370331 
	C1617.626343,408.045624 1639.536133,398.554199 1659.015991,405.702942 
	C1671.458984,410.269287 1674.605591,421.708496 1674.845825,433.392609 
	C1675.352783,458.047821 1674.992554,482.720703 1675.003784,507.386353 
	C1675.007935,516.447632 1678.601074,519.983765 1687.764526,519.998169 
	C1693.930908,520.007874 1700.097412,520.007019 1706.263794,519.998291 
	C1714.524292,519.986633 1717.986206,516.606750 1717.995605,508.498352 
	C1718.011108,495.165558 1718.000000,481.832794 1718.000000,467.500000 
M818.757385,522.994934 
	C831.013367,523.329956 843.268494,523.701050 855.525574,523.990173 
	C868.712646,524.301270 881.513062,521.894165 894.003906,517.922180 
	C906.887573,513.825134 917.912720,506.804199 926.013000,495.763977 
	C937.753235,479.762695 939.498901,461.721802 937.094727,442.642426 
	C934.221741,419.841187 920.961487,404.883667 901.036377,395.855682 
	C889.522583,390.638824 876.916626,387.816132 864.772156,384.011810 
	C852.205872,380.075348 838.864868,378.247681 827.915649,370.004181 
	C817.120850,361.876862 814.579468,345.816711 824.278198,335.251282 
	C831.148254,327.767242 840.425659,325.772003 849.900208,325.119476 
	C858.209412,324.547211 866.607361,324.661346 874.931946,325.108856 
	C881.411377,325.457184 887.979553,326.224274 894.255676,327.806793 
	C903.932373,330.246826 913.393127,333.543304 922.945251,336.477173 
	C928.376099,338.145203 932.091370,336.829254 932.971619,332.924408 
	C935.730713,320.684509 929.616943,306.264221 918.905212,298.953644 
	C905.811768,290.017639 890.847046,287.108337 875.590088,286.201538 
	C864.061157,285.516296 852.408569,286.405304 840.837646,287.062958 
	C826.916626,287.854248 813.769714,291.593384 801.671875,298.734955 
	C791.282532,304.868011 783.352600,313.027985 778.796997,324.449188 
	C774.051392,336.346741 772.363892,348.378265 773.836975,361.205566 
	C775.307983,374.015930 779.929504,385.035919 788.789490,394.248444 
	C802.014587,407.999939 819.187988,414.253082 837.045532,418.956207 
	C850.774353,422.571899 864.826721,425.099396 877.446411,432.110504 
	C886.614807,437.204193 891.972839,444.868347 892.973755,455.337097 
	C894.234680,468.525909 886.322815,478.132782 873.281555,481.936157 
	C859.977234,485.816254 846.445251,486.511597 832.513123,485.271240 
	C820.076050,484.164001 808.073853,481.862427 796.337952,477.934082 
	C788.858948,475.430725 781.599609,472.276245 774.148560,469.681580 
	C770.721680,468.488220 766.047302,467.449463 765.425537,472.477356 
	C764.486816,480.067596 763.908447,487.923584 767.101685,495.334625 
	C772.232178,507.241608 782.218811,513.322449 793.904480,516.939209 
	C801.755737,519.369141 809.861694,520.976013 818.757385,522.994934 
M1484.499634,522.000000 
	C1498.187866,522.524170 1511.643188,521.019409 1525.027954,518.062256 
	C1545.773560,513.478760 1556.653076,499.622955 1556.044800,481.971497 
	C1555.777832,474.220947 1553.502563,471.990021 1545.877319,474.155548 
	C1533.223877,477.749054 1520.628174,481.153564 1507.386719,482.140594 
	C1492.386108,483.258667 1477.438599,484.183929 1462.637451,480.928802 
	C1452.264648,478.647583 1444.615967,472.907257 1441.503296,462.000000 
	C1473.933350,462.000000 1506.085815,462.005096 1538.238281,461.996887 
	C1547.844971,461.994446 1554.126953,457.342255 1555.922119,447.954285 
	C1556.930664,442.680481 1557.096924,437.152924 1556.922363,431.762970 
	C1556.393066,415.421143 1550.768799,400.920044 1539.454834,389.048767 
	C1525.328003,374.226288 1506.937134,368.565521 1487.263184,367.178741 
	C1474.171631,366.255951 1460.943237,366.431702 1448.016968,369.964142 
	C1427.622070,375.537598 1411.294434,386.401276 1402.095093,405.944031 
	C1393.555664,424.084839 1392.337769,443.381927 1395.013672,463.009918 
	C1398.606567,489.364319 1412.529053,507.295868 1438.012573,516.104492 
	C1452.834595,521.227905 1468.025757,522.447998 1484.499634,522.000000 
M1332.495361,231.069702 
	C1337.939087,228.284485 1343.382812,225.499268 1348.081787,223.095108 
	C1351.245605,225.971786 1354.210449,229.513641 1357.926392,231.871902 
	C1365.959229,236.969681 1375.201172,236.215515 1384.185303,235.839523 
	C1385.425659,235.787598 1387.236572,233.872482 1387.638306,232.487732 
	C1388.491699,229.546494 1388.965454,226.383698 1388.942261,223.316635 
	C1388.702759,191.581238 1388.523315,159.842987 1387.880615,128.114563 
	C1387.695312,118.972290 1383.557861,110.979248 1377.548340,104.011330 
	C1364.206665,88.541939 1346.020996,83.557365 1326.951660,82.259048 
	C1309.562134,81.075111 1291.955322,81.119255 1274.725464,85.038383 
	C1265.938843,87.037018 1257.450928,90.248535 1254.356812,99.644730 
	C1252.562134,105.094398 1252.479004,111.170540 1252.076050,116.995926 
	C1251.750244,121.707321 1253.862793,123.524734 1258.726318,122.956741 
	C1269.083008,121.747185 1279.430908,120.432449 1289.749634,118.934875 
	C1302.415039,117.096741 1315.099731,117.103149 1327.465698,120.153763 
	C1339.872803,123.214500 1347.198730,132.873230 1344.197632,146.255112 
	C1337.578125,145.509354 1330.914795,144.138062 1324.249268,144.127731 
	C1306.468262,144.100174 1288.528687,142.393631 1271.033813,147.081894 
	C1258.484863,150.444748 1247.661987,156.583405 1242.436401,169.232712 
	C1238.078247,179.782471 1237.935425,190.891754 1240.480347,201.964264 
	C1242.442871,210.501770 1245.915649,218.431000 1252.772217,224.151596 
	C1262.989380,232.676117 1275.349243,236.109146 1288.299805,236.889389 
	C1303.082275,237.779953 1317.781982,236.748474 1332.495361,231.069702 
M1132.531250,199.995300 
	C1132.364746,199.982498 1132.192627,199.991531 1132.033447,199.950333 
	C1131.894775,199.914459 1131.770752,199.821930 1131.640259,199.754410 
	C1132.454712,198.644485 1133.119263,197.374756 1134.106812,196.449509 
	C1143.392090,187.750214 1152.809448,179.190796 1162.036255,170.430573 
	C1172.267944,160.716415 1182.340332,150.834457 1192.481689,141.025116 
	C1193.438477,140.099701 1194.386719,139.165558 1195.348877,138.245834 
	C1202.055664,131.835449 1208.861206,125.523392 1215.395508,118.941940 
	C1216.771484,117.556038 1217.711426,115.236168 1217.894165,113.258171 
	C1218.498657,106.708900 1218.810913,100.122498 1218.959839,93.544106 
	C1219.115356,86.677773 1216.346436,84.005943 1209.518555,84.003769 
	C1181.352051,83.994774 1153.185425,83.999992 1125.018921,84.000008 
	C1111.518921,84.000008 1098.018799,84.043350 1084.519165,83.970886 
	C1080.963379,83.951797 1078.313232,84.983307 1078.037354,88.892609 
	C1077.434204,97.439224 1079.948730,105.034195 1085.839478,111.290817 
	C1092.219849,118.067589 1100.799683,119.682877 1109.462646,119.892670 
	C1125.120117,120.271851 1140.793213,119.994247 1156.459839,120.009956 
	C1157.842773,120.011345 1159.225342,120.152794 1161.479980,120.277359 
	C1151.575806,129.390091 1142.243530,137.755203 1133.160034,146.382355 
	C1116.445190,162.257523 1099.856323,178.265594 1083.262939,194.268219 
	C1079.590576,197.809937 1077.712646,202.096619 1077.940674,207.390839 
	C1078.198608,213.379715 1077.999268,219.388245 1078.000122,225.388229 
	C1078.001343,233.510712 1079.513184,234.996765 1087.863525,234.997757 
	C1129.696655,235.002670 1171.529907,235.003220 1213.363037,234.986755 
	C1214.844116,234.986176 1216.648560,235.289062 1217.739258,234.582031 
	C1220.023560,233.101059 1223.313354,231.307724 1223.727905,229.166031 
	C1224.842896,223.406006 1225.291138,217.348129 1224.848877,211.495789 
	C1224.214722,203.102951 1222.569458,199.847534 1212.852051,199.926193 
	C1186.353882,200.140701 1159.852905,199.999802 1132.531250,199.995300 
M1231.928711,439.425690 
	C1218.406372,431.991760 1203.660522,428.608826 1188.629761,425.891296 
	C1180.552979,424.431000 1172.494751,422.402039 1164.781372,419.642517 
	C1161.991699,418.644470 1159.001221,415.062836 1158.299438,412.133759 
	C1157.323486,408.059601 1161.298096,405.950073 1164.840698,405.070953 
	C1169.061768,404.023529 1173.436523,403.155762 1177.763428,403.060852 
	C1188.595459,402.823334 1199.485962,402.458771 1210.261719,403.305664 
	C1219.104370,404.000641 1227.799927,406.458130 1236.590942,407.957489 
	C1242.593750,408.981354 1244.995972,406.776642 1244.999878,400.672638 
	C1245.000732,399.173248 1244.819946,397.648224 1245.028809,396.178528 
	C1246.496216,385.854858 1235.838623,375.750793 1228.090332,372.877808 
	C1212.503662,367.098358 1196.383789,366.775391 1180.109009,366.960846 
	C1167.780884,367.101318 1155.687500,368.657837 1144.188232,373.106506 
	C1135.247681,376.565308 1127.607300,381.756439 1122.643433,390.590332 
	C1118.142822,398.599579 1116.801758,406.963501 1116.956665,415.909851 
	C1117.181396,428.888336 1122.310059,438.860504 1133.320190,446.130066 
	C1145.037476,453.866455 1158.430542,456.029022 1171.647949,459.022278 
	C1181.402344,461.231354 1191.134644,463.547852 1200.832764,465.991058 
	C1205.543091,467.177673 1209.641968,470.111572 1209.698486,475.047119 
	C1209.756470,480.113586 1205.742798,483.568970 1200.984619,484.846344 
	C1196.318848,486.099060 1191.319092,486.051575 1186.572510,487.071136 
	C1175.165405,489.521484 1163.970215,487.229797 1152.922607,485.265350 
	C1142.317261,483.379517 1131.990112,479.941528 1121.527344,477.237030 
	C1116.236816,475.869446 1113.062012,478.209442 1113.068115,483.853882 
	C1113.072998,488.434601 1113.167480,493.125610 1114.131226,497.570587 
	C1115.810669,505.315857 1119.506470,512.482910 1127.495728,514.873596 
	C1137.817139,517.962158 1148.468384,521.079956 1159.119019,521.682434 
	C1176.854370,522.685608 1194.798462,523.147034 1212.352051,518.968384 
	C1224.955200,515.968079 1236.432007,510.911774 1243.890625,499.559387 
	C1249.415283,491.150482 1249.984741,481.670898 1250.132568,471.885498 
	C1250.348145,457.616394 1243.447388,447.769470 1231.928711,439.425690 
M1300.494141,509.995667 
	C1305.032471,515.241272 1310.944092,518.231506 1317.490967,519.977966 
	C1330.131714,523.350098 1343.097290,523.219055 1355.669678,520.770569 
	C1374.938599,517.018005 1383.867432,506.800110 1380.895508,484.863373 
	C1380.707764,483.477783 1379.277954,481.456207 1378.089600,481.180634 
	C1375.736328,480.634888 1373.125488,480.908264 1370.660522,481.189056 
	C1363.217285,482.037109 1355.815552,483.366180 1348.354248,483.907593 
	C1341.469360,484.407196 1336.809692,480.456055 1333.338989,474.823761 
	C1329.388916,468.413452 1329.996704,461.308044 1329.998657,454.278198 
	C1330.003174,438.328003 1330.000000,422.377808 1330.000000,406.000000 
	C1332.035767,406.000000 1333.656494,406.000000 1335.277222,406.000000 
	C1345.941040,406.000000 1356.604736,406.005859 1367.268555,405.997894 
	C1374.356934,405.992615 1376.928223,403.419373 1376.990845,396.189087 
	C1377.037109,390.857635 1377.198853,385.516357 1376.955688,380.195587 
	C1376.538086,371.060272 1374.963257,368.991760 1365.627075,368.998077 
	C1353.856079,369.006042 1342.085083,369.000000 1330.000000,369.000000 
	C1330.000000,358.839111 1330.063843,349.206390 1329.980713,339.574921 
	C1329.908447,331.232239 1327.318359,326.487640 1322.309814,326.071564 
	C1315.248779,325.484955 1308.153931,325.198303 1301.068359,325.073242 
	C1298.508057,325.028046 1295.797607,325.441711 1293.392456,326.305389 
	C1288.093750,328.208069 1287.023682,332.800232 1287.009155,337.783722 
	C1286.978882,348.062836 1287.000000,358.342102 1287.000000,369.000153 
	C1281.412964,369.000153 1276.269897,368.751801 1271.164429,369.082428 
	C1267.399414,369.326263 1262.746948,369.524139 1262.136597,374.471863 
	C1261.311768,381.157196 1260.853394,387.966858 1261.116577,394.688782 
	C1261.506348,404.644348 1263.332764,406.000000 1273.378418,406.000000 
	C1277.487915,406.000000 1281.597534,406.000000 1286.000000,406.000000 
	C1286.000000,408.667419 1285.957275,410.806305 1286.006714,412.943115 
	C1286.546387,436.284760 1284.371094,459.719696 1288.056763,482.948425 
	C1289.618530,492.791779 1292.577393,502.187256 1300.494141,509.995667 
M1024.795410,235.000000 
	C1031.126343,234.999969 1037.458740,235.090759 1043.787720,234.976501 
	C1051.395752,234.839142 1055.786133,230.378250 1055.990234,222.759811 
	C1056.052612,220.429016 1056.000000,218.095169 1056.000000,215.762711 
	C1056.000000,176.277634 1056.007324,136.792557 1055.993774,97.307480 
	C1055.991089,89.513161 1052.798462,84.573471 1045.844971,84.213432 
	C1036.981934,83.754501 1028.034790,84.482567 1019.149109,85.075157 
	C1014.573792,85.380280 1012.508057,89.020287 1012.098022,93.037994 
	C1011.412598,99.755028 1011.012878,106.535942 1011.053467,113.286591 
	C1011.274292,150.028809 1011.541077,186.771835 1012.082764,223.510315 
	C1012.229797,233.484924 1015.540955,233.586655 1024.795410,235.000000 
M1044.102783,17.032253 
	C1039.455444,16.354906 1034.725342,14.761069 1030.176270,15.171689 
	C1016.409729,16.414320 1008.060425,23.314188 1007.066589,37.275265 
	C1006.360718,47.192093 1012.066528,56.155163 1019.506653,59.159321 
	C1030.414673,63.563698 1040.858521,63.431129 1050.280884,56.083805 
	C1061.241089,47.537128 1061.707886,25.318136 1044.102783,17.032253 
z"/>
<path fill="#0A406B" opacity="1.000000" stroke="none" 
	d="
M490.531342,1.000002 
	C497.495483,4.282867 504.515045,6.848017 510.314941,11.083421 
	C514.685364,14.274991 518.022766,19.285435 520.904480,24.041039 
	C532.886780,43.815258 544.362061,63.897266 556.392334,83.641510 
	C559.568604,88.854416 559.899292,93.857796 557.459656,98.865219 
	C554.786072,104.352829 549.681274,106.050911 543.653442,106.047226 
	C437.178558,105.982002 330.703644,106.029045 224.228973,105.883087 
	C220.376114,105.877808 218.167679,107.091187 216.364426,110.172264 
	C203.946640,131.389496 191.546173,152.617371 179.011093,173.765350 
	C164.910492,197.554520 150.634933,221.239929 136.515213,245.017807 
	C130.336365,255.423096 124.355484,265.945923 118.174927,276.604675 
	C125.524544,277.085449 132.514496,277.933838 139.505264,277.940765 
	C229.817215,278.030273 320.130066,278.171082 410.440216,277.759369 
	C420.470062,277.713654 430.004578,288.034882 423.369354,299.211609 
	C412.886169,316.869904 402.593292,334.641113 392.150146,352.323303 
	C387.541931,360.125854 382.639465,367.756226 378.104431,375.599915 
	C375.064148,380.858337 370.531342,382.991791 364.745667,382.992432 
	C269.934692,383.003143 175.123627,383.069885 80.312836,382.935425 
	C63.286301,382.911255 50.743374,375.236176 42.295277,359.988556 
	C30.229176,338.210907 17.290392,316.917725 4.842465,295.349457 
	C3.414015,292.874359 2.741215,289.963135 1.359020,287.127075 
	C1.000000,281.311951 1.000000,275.623932 1.363368,269.335144 
	C2.179098,267.014404 2.307950,265.117157 3.137304,263.603729 
	C7.868960,254.969482 12.668090,246.368652 17.630259,237.864990 
	C27.575445,220.821930 37.604599,203.827560 47.667381,186.853561 
	C56.492138,171.967865 65.469177,157.172318 74.272438,142.274017 
	C85.711609,122.914749 96.983917,103.456802 108.441925,84.108772 
	C119.818535,64.898178 131.349258,45.778900 142.785172,26.603350 
	C146.681702,20.069695 150.026596,13.002237 156.766190,8.855576 
	C161.618408,5.870168 166.906387,3.593051 172.000000,0.999999 
	C278.020905,1.000000 384.041779,1.000000 490.531342,1.000002 
z"/>
<path fill="#0A406B" opacity="1.000000" stroke="none" 
	d="
M918.531372,1.000003 
	C924.658936,1.998702 930.299255,3.121938 935.980591,3.970871 
	C948.905823,5.902238 960.717468,10.835223 970.931213,18.709948 
	C978.538086,24.574800 981.790588,33.497124 982.940125,42.955349 
	C983.319275,46.075050 983.120850,49.285488 982.971497,52.444267 
	C982.722778,57.704803 980.359741,59.183319 975.573364,57.114635 
	C957.992798,49.516167 939.823303,43.308758 920.833252,41.345047 
	C905.817932,39.792362 890.513794,40.827435 875.343140,41.058289 
	C865.826721,41.203102 856.928528,44.163319 848.182800,47.884186 
	C833.907166,53.957752 824.131714,64.327606 818.043213,78.318153 
	C810.496643,95.658920 809.948120,114.104385 811.188538,132.454987 
	C812.406616,150.475616 818.260498,167.067047 831.637756,180.113861 
	C841.265015,189.503250 853.252502,194.784225 866.158752,196.709473 
	C878.652466,198.573151 891.544556,199.523499 904.109985,198.661942 
	C917.095825,197.771576 929.899109,194.217163 942.799561,191.824951 
	C942.799561,177.037994 942.799561,163.273849 942.799561,149.000000 
	C932.889160,149.000000 923.114197,148.976562 913.339417,149.004959 
	C893.907593,149.061417 883.759155,134.014084 886.236572,115.528992 
	C886.467346,113.806839 889.786438,111.212624 891.692871,111.193924 
	C920.182556,110.914429 948.675903,110.960136 977.168091,111.035767 
	C982.601501,111.050186 986.958252,115.511505 986.969910,121.002594 
	C987.033020,150.661209 987.084106,180.320435 986.949951,209.978577 
	C986.908325,219.182098 979.852539,222.144775 972.709839,225.025909 
	C956.238586,231.669937 939.091736,236.064285 921.547241,237.728683 
	C905.572144,239.244186 889.330017,239.732193 873.328186,238.724945 
	C853.381775,237.469437 833.942932,232.965622 816.129944,223.051712 
	C797.604858,212.741501 783.621826,198.364853 774.485657,179.095230 
	C766.059814,161.323700 762.965271,142.686218 762.878662,123.170975 
	C762.802551,106.019981 763.839966,89.102043 769.050354,72.688080 
	C772.797241,60.884590 778.483215,50.075733 786.157471,40.236202 
	C794.589478,29.425070 805.214172,21.390160 817.290405,15.449409 
	C830.695557,8.854954 844.994629,4.710507 859.913391,3.003003 
	C863.820801,2.555772 867.737610,2.190628 871.825073,1.393893 
	C887.354248,1.000000 902.708435,1.000000 918.531372,1.000003 
z"/>
<path fill="none" opacity="1.000000" stroke="none" 
	d="
M171.531342,0.999999 
	C166.906387,3.593051 161.618408,5.870168 156.766190,8.855576 
	C150.026596,13.002237 146.681702,20.069695 142.785172,26.603350 
	C131.349258,45.778900 119.818535,64.898178 108.441925,84.108772 
	C96.983917,103.456802 85.711609,122.914749 74.272438,142.274017 
	C65.469177,157.172318 56.492138,171.967865 47.667381,186.853561 
	C37.604599,203.827560 27.575445,220.821930 17.630259,237.864990 
	C12.668090,246.368652 7.868960,254.969482 3.137304,263.603729 
	C2.307950,265.117157 2.179098,267.014404 1.363368,268.867188 
	C1.000000,179.755753 1.000000,90.511497 1.000000,1.000000 
	C57.687283,1.000000 114.374985,1.000000 171.531342,0.999999 
z"/>
<path fill="#0A406B" opacity="1.000000" stroke="none" 
	d="
M959.468384,598.000000 
	C956.702759,596.680664 954.550049,594.908020 952.082947,594.121704 
	C942.180908,590.965698 936.168945,581.347839 935.927368,570.966003 
	C935.689270,560.739258 935.502502,558.268616 948.256165,561.488831 
	C966.541382,566.105774 981.113220,562.079468 992.986267,545.568726 
	C998.621338,537.732483 1003.554932,529.391663 1009.820435,519.712830 
	C994.605286,522.108704 993.682556,510.811798 990.162170,502.923218 
	C982.410706,485.553345 975.329224,467.883026 968.056152,450.301483 
	C960.970398,433.172638 953.979919,416.004303 946.961792,398.847565 
	C944.827271,393.629578 942.162476,388.541626 940.763184,383.129730 
	C938.560913,374.612915 939.158875,368.906586 951.069214,369.044739 
	C959.474426,369.142212 967.929688,369.212250 976.246460,370.236664 
	C979.007080,370.576691 982.654724,373.305023 983.769409,375.867096 
	C991.164185,392.863739 998.076172,410.073822 1004.958496,427.289154 
	C1011.774536,444.338715 1018.370911,461.476105 1025.374512,479.369324 
	C1029.443115,469.366882 1033.234131,460.115509 1036.972046,450.842804 
	C1044.987915,430.957764 1052.959961,411.055115 1060.988037,391.175018 
	C1062.918701,386.393860 1065.003540,381.675079 1067.008179,376.923645 
	C1069.414062,371.221100 1074.051392,369.084229 1079.872314,369.018127 
	C1086.701050,368.940582 1093.532349,368.925964 1100.360840,369.016602 
	C1111.762329,369.167908 1112.836670,374.696075 1110.209839,383.047882 
	C1107.080078,392.998810 1102.454590,402.484375 1098.391968,412.135651 
	C1090.946899,429.822235 1083.478638,447.499268 1075.945923,465.148590 
	C1069.612305,479.988220 1063.308960,494.843262 1056.739868,509.579102 
	C1051.015747,522.419922 1045.204346,535.235413 1038.947266,547.821411 
	C1032.228149,561.336914 1023.998718,573.900757 1012.498230,583.952881 
	C1003.026062,592.232117 991.980347,596.778687 979.166748,597.611694 
	C972.645569,598.000000 966.291199,598.000000 959.468384,598.000000 
z"/>
<path fill="#0A406B" opacity="1.000000" stroke="none" 
	d="
M1973.000000,484.531464 
	C1970.577881,491.937164 1968.292236,498.933472 1963.056396,504.443604 
	C1955.372070,512.530579 1945.616333,516.547913 1935.000488,519.013489 
	C1917.902832,522.984497 1900.502808,522.491516 1883.229370,521.761414 
	C1873.263428,521.340271 1863.252808,519.104858 1853.529053,516.635376 
	C1843.837280,514.174011 1836.405518,502.863983 1836.014404,491.957397 
	C1835.918823,489.294373 1835.921387,486.622253 1836.016113,483.959198 
	C1836.240479,477.648071 1838.774292,475.709839 1844.749146,477.355225 
	C1848.786255,478.466919 1852.698120,480.147919 1856.789185,480.926849 
	C1868.417358,483.140717 1880.148804,484.817535 1891.763550,487.094513 
	C1902.685791,489.235748 1913.270996,487.377106 1923.749512,484.848419 
	C1927.968628,483.830231 1931.756958,481.238281 1931.993774,475.976624 
	C1932.227661,470.781525 1930.195435,467.689606 1923.977051,466.060669 
	C1912.579224,463.074951 1901.055664,460.551758 1889.542603,458.027222 
	C1875.899658,455.035645 1862.269043,451.903534 1851.286743,442.595367 
	C1845.316895,437.535736 1841.579834,430.668396 1840.536987,422.931885 
	C1838.964844,411.267212 1839.507080,399.723907 1846.164429,389.356964 
	C1853.229492,378.354828 1864.228149,373.246246 1876.239502,370.090485 
	C1891.912842,365.972504 1908.046753,366.348999 1923.975098,367.270203 
	C1933.215088,367.804596 1942.413696,370.599152 1951.421997,373.122650 
	C1959.162354,375.291016 1969.352173,385.434174 1968.025391,396.088806 
	C1967.841553,397.565765 1968.000610,399.085358 1967.999878,400.585236 
	C1967.996826,406.748840 1965.677490,408.902222 1959.671753,407.971771 
	C1947.302612,406.055420 1935.014038,403.295990 1922.577026,402.234253 
	C1911.004517,401.246307 1899.203369,401.331085 1887.893921,405.024048 
	C1883.937500,406.315918 1879.508545,408.322754 1881.264160,413.439911 
	C1882.168823,416.076996 1885.326538,418.886078 1888.063354,419.770996 
	C1896.028076,422.346283 1904.244751,424.224670 1912.452271,425.949005 
	C1927.813721,429.176239 1943.417847,431.720245 1956.639160,441.006500 
	C1964.572266,446.578552 1970.824219,453.567261 1972.634277,463.864197 
	C1973.000000,470.687653 1973.000000,477.375275 1973.000000,484.531464 
z"/>
<path fill="#00A7E1" opacity="1.000000" stroke="none" 
	d="
M426.857666,415.990662 
	C460.549988,358.968781 494.242340,301.946899 528.481201,244.000000 
	C526.021667,244.000000 524.157043,244.000000 522.292480,244.000000 
	C426.483246,244.000000 330.674011,243.981689 234.864807,244.050888 
	C229.764359,244.054565 225.595154,242.875671 222.754318,238.352158 
	C219.166962,232.639954 219.427048,227.271057 222.960266,221.432709 
	C232.652939,205.416336 241.969040,189.172409 251.477722,173.044205 
	C256.602844,164.351227 261.806030,155.704163 266.995300,147.049118 
	C270.341736,141.467682 275.455566,139.012878 281.799805,139.011749 
	C377.275787,138.994873 472.752289,138.850098 568.227234,139.160614 
	C582.670776,139.207596 594.080200,146.299469 601.608887,159.102341 
	C614.234558,180.573059 627.358032,201.758820 639.610901,223.438141 
	C647.635315,237.636093 646.492188,252.234558 638.242798,266.232788 
	C626.671265,285.868347 615.064697,305.483307 603.434631,325.084259 
	C591.224426,345.662842 578.990967,366.227783 566.716064,386.767853 
	C563.965515,391.370422 561.000305,395.844757 557.638062,400.715942 
	C552.444641,403.728790 547.969238,406.943970 543.010254,408.983246 
	C523.750488,416.903534 503.127258,415.643433 482.973206,416.800140 
	C466.033417,417.772339 448.993378,417.028748 431.998077,416.955872 
	C430.283264,416.948517 428.571106,416.327118 426.857666,415.990662 
z"/>
<path fill="#0A406B" opacity="1.000000" stroke="none" 
	d="
M426.401093,415.994720 
	C428.571106,416.327118 430.283264,416.948517 431.998077,416.955872 
	C448.993378,417.028748 466.033417,417.772339 482.973206,416.800140 
	C503.127258,415.643433 523.750488,416.903534 543.010254,408.983246 
	C547.969238,406.943970 552.444641,403.728790 557.488708,401.033112 
	C553.387024,409.009491 549.073853,417.085297 544.462463,424.987091 
	C534.924438,441.330750 525.258850,457.600311 515.584900,473.864166 
	C509.463379,484.155609 503.569458,494.605469 496.958008,504.576172 
	C489.943207,515.155090 479.477570,520.875427 466.879700,520.897827 
	C364.725189,521.079773 262.570129,521.037048 160.415329,520.959045 
	C145.489197,520.947632 134.351639,513.857483 126.693375,501.226379 
	C113.944626,480.199249 101.366562,459.068237 88.539841,438.089050 
	C82.821815,428.736664 89.129074,416.795837 100.483543,416.011993 
	C101.644569,415.931824 102.815865,416.000061 103.982399,416.000061 
	C211.303101,415.999603 318.623779,415.999176 426.401093,415.994720 
z"/>
<path fill="#0A406B" opacity="1.000000" stroke="none" 
	d="
M1718.000000,468.000000 
	C1718.000000,481.832794 1718.011108,495.165558 1717.995605,508.498352 
	C1717.986206,516.606750 1714.524292,519.986633 1706.263794,519.998291 
	C1700.097412,520.007019 1693.930908,520.007874 1687.764526,519.998169 
	C1678.601074,519.983765 1675.007935,516.447632 1675.003784,507.386353 
	C1674.992554,482.720703 1675.352783,458.047821 1674.845825,433.392609 
	C1674.605591,421.708496 1671.458984,410.269287 1659.015991,405.702942 
	C1639.536133,398.554199 1617.626343,408.045624 1617.105957,433.370331 
	C1616.613037,457.359222 1617.000122,481.366180 1617.000000,505.365173 
	C1617.000000,506.365143 1617.138672,507.388184 1616.977051,508.361359 
	C1615.723022,515.913574 1614.765137,519.708069 1604.718628,519.968323 
	C1598.223267,520.136658 1591.719849,520.018860 1585.220215,519.995056 
	C1577.634399,519.967285 1574.013184,516.453796 1574.009888,508.982361 
	C1573.989868,464.984192 1573.992920,420.986023 1574.008179,376.987854 
	C1574.010254,371.008698 1576.000732,369.036224 1581.965454,369.006226 
	C1592.295166,368.954285 1602.317505,369.948364 1609.777832,378.342224 
	C1611.483521,380.261505 1612.789551,382.535919 1614.441040,384.875549 
	C1622.863647,376.427032 1632.984131,370.925720 1644.703735,368.745117 
	C1662.240845,365.482147 1679.690308,364.882385 1695.400146,375.084351 
	C1700.798462,378.589996 1705.038208,383.879517 1710.062744,388.593781 
	C1718.554810,377.907928 1730.350342,371.081238 1744.128418,368.548431 
	C1761.776245,365.304230 1779.351562,365.494171 1795.536499,374.960571 
	C1808.155762,382.341370 1814.854126,393.986267 1817.887695,407.816498 
	C1819.209229,413.841309 1819.861328,420.124847 1819.908936,426.297943 
	C1820.119507,453.628510 1820.004028,480.961639 1819.997437,508.293823 
	C1819.995605,516.035400 1816.063721,519.984924 1808.368408,519.997925 
	C1802.202026,520.008362 1796.031128,520.150635 1789.870239,519.966858 
	C1778.984985,519.642212 1777.278687,516.580627 1777.129517,506.982635 
	C1776.743530,482.156342 1777.280518,457.314606 1776.800781,432.491577 
	C1776.682129,426.353485 1775.229980,419.668884 1772.406738,414.273865 
	C1766.432007,402.857147 1754.444092,401.481781 1744.268921,403.447571 
	C1728.180420,406.555878 1717.497925,421.428925 1717.948120,437.503204 
	C1718.227905,447.494781 1718.000000,457.500580 1718.000000,468.000000 
z"/>
<path fill="#0A406B" opacity="1.000000" stroke="none" 
	d="
M818.305542,522.973022 
	C809.861694,520.976013 801.755737,519.369141 793.904480,516.939209 
	C782.218811,513.322449 772.232178,507.241608 767.101685,495.334625 
	C763.908447,487.923584 764.486816,480.067596 765.425537,472.477356 
	C766.047302,467.449463 770.721680,468.488220 774.148560,469.681580 
	C781.599609,472.276245 788.858948,475.430725 796.337952,477.934082 
	C808.073853,481.862427 820.076050,484.164001 832.513123,485.271240 
	C846.445251,486.511597 859.977234,485.816254 873.281555,481.936157 
	C886.322815,478.132782 894.234680,468.525909 892.973755,455.337097 
	C891.972839,444.868347 886.614807,437.204193 877.446411,432.110504 
	C864.826721,425.099396 850.774353,422.571899 837.045532,418.956207 
	C819.187988,414.253082 802.014587,407.999939 788.789490,394.248444 
	C779.929504,385.035919 775.307983,374.015930 773.836975,361.205566 
	C772.363892,348.378265 774.051392,336.346741 778.796997,324.449188 
	C783.352600,313.027985 791.282532,304.868011 801.671875,298.734955 
	C813.769714,291.593384 826.916626,287.854248 840.837646,287.062958 
	C852.408569,286.405304 864.061157,285.516296 875.590088,286.201538 
	C890.847046,287.108337 905.811768,290.017639 918.905212,298.953644 
	C929.616943,306.264221 935.730713,320.684509 932.971619,332.924408 
	C932.091370,336.829254 928.376099,338.145203 922.945251,336.477173 
	C913.393127,333.543304 903.932373,330.246826 894.255676,327.806793 
	C887.979553,326.224274 881.411377,325.457184 874.931946,325.108856 
	C866.607361,324.661346 858.209412,324.547211 849.900208,325.119476 
	C840.425659,325.772003 831.148254,327.767242 824.278198,335.251282 
	C814.579468,345.816711 817.120850,361.876862 827.915649,370.004181 
	C838.864868,378.247681 852.205872,380.075348 864.772156,384.011810 
	C876.916626,387.816132 889.522583,390.638824 901.036377,395.855682 
	C920.961487,404.883667 934.221741,419.841187 937.094727,442.642426 
	C939.498901,461.721802 937.753235,479.762695 926.013000,495.763977 
	C917.912720,506.804199 906.887573,513.825134 894.003906,517.922180 
	C881.513062,521.894165 868.712646,524.301270 855.525574,523.990173 
	C843.268494,523.701050 831.013367,523.329956 818.305542,522.973022 
z"/>
<path fill="#0A406B" opacity="1.000000" stroke="none" 
	d="
M1483.999756,522.000000 
	C1468.025757,522.447998 1452.834595,521.227905 1438.012573,516.104492 
	C1412.529053,507.295868 1398.606567,489.364319 1395.013672,463.009918 
	C1392.337769,443.381927 1393.555664,424.084839 1402.095093,405.944031 
	C1411.294434,386.401276 1427.622070,375.537598 1448.016968,369.964142 
	C1460.943237,366.431702 1474.171631,366.255951 1487.263184,367.178741 
	C1506.937134,368.565521 1525.328003,374.226288 1539.454834,389.048767 
	C1550.768799,400.920044 1556.393066,415.421143 1556.922363,431.762970 
	C1557.096924,437.152924 1556.930664,442.680481 1555.922119,447.954285 
	C1554.126953,457.342255 1547.844971,461.994446 1538.238281,461.996887 
	C1506.085815,462.005096 1473.933350,462.000000 1441.503296,462.000000 
	C1444.615967,472.907257 1452.264648,478.647583 1462.637451,480.928802 
	C1477.438599,484.183929 1492.386108,483.258667 1507.386719,482.140594 
	C1520.628174,481.153564 1533.223877,477.749054 1545.877319,474.155548 
	C1553.502563,471.990021 1555.777832,474.220947 1556.044800,481.971497 
	C1556.653076,499.622955 1545.773560,513.478760 1525.027954,518.062256 
	C1511.643188,521.019409 1498.187866,522.524170 1483.999756,522.000000 
M1474.500000,429.000000 
	C1487.801147,429.000000 1501.102417,429.000000 1514.426758,429.000000 
	C1511.511108,411.425934 1497.976196,404.475403 1482.546753,403.062622 
	C1456.965088,400.720245 1445.402100,413.927490 1441.545898,429.000000 
	C1452.216553,429.000000 1462.858276,429.000000 1474.500000,429.000000 
z"/>
<path fill="#0A406B" opacity="1.000000" stroke="none" 
	d="
M1332.200439,231.336609 
	C1317.781982,236.748474 1303.082275,237.779953 1288.299805,236.889389 
	C1275.349243,236.109146 1262.989380,232.676117 1252.772217,224.151596 
	C1245.915649,218.431000 1242.442871,210.501770 1240.480347,201.964264 
	C1237.935425,190.891754 1238.078247,179.782471 1242.436401,169.232712 
	C1247.661987,156.583405 1258.484863,150.444748 1271.033813,147.081894 
	C1288.528687,142.393631 1306.468262,144.100174 1324.249268,144.127731 
	C1330.914795,144.138062 1337.578125,145.509354 1344.197632,146.255112 
	C1347.198730,132.873230 1339.872803,123.214500 1327.465698,120.153763 
	C1315.099731,117.103149 1302.415039,117.096741 1289.749634,118.934875 
	C1279.430908,120.432449 1269.083008,121.747185 1258.726318,122.956741 
	C1253.862793,123.524734 1251.750244,121.707321 1252.076050,116.995926 
	C1252.479004,111.170540 1252.562134,105.094398 1254.356812,99.644730 
	C1257.450928,90.248535 1265.938843,87.037018 1274.725464,85.038383 
	C1291.955322,81.119255 1309.562134,81.075111 1326.951660,82.259048 
	C1346.020996,83.557365 1364.206665,88.541939 1377.548340,104.011330 
	C1383.557861,110.979248 1387.695312,118.972290 1387.880615,128.114563 
	C1388.523315,159.842987 1388.702759,191.581238 1388.942261,223.316635 
	C1388.965454,226.383698 1388.491699,229.546494 1387.638306,232.487732 
	C1387.236572,233.872482 1385.425659,235.787598 1384.185303,235.839523 
	C1375.201172,236.215515 1365.959229,236.969681 1357.926392,231.871902 
	C1354.210449,229.513641 1351.245605,225.971786 1348.081787,223.095108 
	C1343.382812,225.499268 1337.939087,228.284485 1332.200439,231.336609 
M1322.800537,176.994492 
	C1313.850952,177.168106 1304.894287,177.190109 1295.956543,177.614105 
	C1293.496948,177.730789 1290.977783,178.796814 1288.686890,179.860214 
	C1281.208252,183.331955 1279.202515,192.145874 1287.128906,197.367538 
	C1290.852539,199.820602 1295.609985,201.080536 1300.080200,201.955093 
	C1314.834229,204.841553 1328.855713,202.340393 1341.918091,194.921722 
	C1343.259277,194.159973 1344.726929,192.383835 1344.857910,190.960815 
	C1345.246826,186.733124 1344.997314,182.446701 1344.997314,176.999466 
	C1337.516846,176.999466 1330.634521,176.999466 1322.800537,176.994492 
z"/>
<path fill="#0A406B" opacity="1.000000" stroke="none" 
	d="
M1132.942139,199.997498 
	C1159.852905,199.999802 1186.353882,200.140701 1212.852051,199.926193 
	C1222.569458,199.847534 1224.214722,203.102951 1224.848877,211.495789 
	C1225.291138,217.348129 1224.842896,223.406006 1223.727905,229.166031 
	C1223.313354,231.307724 1220.023560,233.101059 1217.739258,234.582031 
	C1216.648560,235.289062 1214.844116,234.986176 1213.363037,234.986755 
	C1171.529907,235.003220 1129.696655,235.002670 1087.863525,234.997757 
	C1079.513184,234.996765 1078.001343,233.510712 1078.000122,225.388229 
	C1077.999268,219.388245 1078.198608,213.379715 1077.940674,207.390839 
	C1077.712646,202.096619 1079.590576,197.809937 1083.262939,194.268219 
	C1099.856323,178.265594 1116.445190,162.257523 1133.160034,146.382355 
	C1142.243530,137.755203 1151.575806,129.390091 1161.479980,120.277359 
	C1159.225342,120.152794 1157.842773,120.011345 1156.459839,120.009956 
	C1140.793213,119.994247 1125.120117,120.271851 1109.462646,119.892670 
	C1100.799683,119.682877 1092.219849,118.067589 1085.839478,111.290817 
	C1079.948730,105.034195 1077.434204,97.439224 1078.037354,88.892609 
	C1078.313232,84.983307 1080.963379,83.951797 1084.519165,83.970886 
	C1098.018799,84.043350 1111.518921,84.000008 1125.018921,84.000008 
	C1153.185425,83.999992 1181.352051,83.994774 1209.518555,84.003769 
	C1216.346436,84.005943 1219.115356,86.677773 1218.959839,93.544106 
	C1218.810913,100.122498 1218.498657,106.708900 1217.894165,113.258171 
	C1217.711426,115.236168 1216.771484,117.556038 1215.395508,118.941940 
	C1208.861206,125.523392 1202.055664,131.835449 1195.348877,138.245834 
	C1194.386719,139.165558 1193.438477,140.099701 1192.481689,141.025116 
	C1182.340332,150.834457 1172.267944,160.716415 1162.036255,170.430573 
	C1152.809448,179.190796 1143.392090,187.750214 1134.106812,196.449509 
	C1133.119263,197.374756 1132.454712,198.644485 1131.640259,199.754425 
	C1131.770752,199.821930 1131.894775,199.914459 1132.033447,199.950333 
	C1132.192627,199.991531 1132.364746,199.982498 1132.942139,199.997498 
z"/>
<path fill="#0A406B" opacity="1.000000" stroke="none" 
	d="
M1232.186401,439.693909 
	C1243.447388,447.769470 1250.348145,457.616394 1250.132568,471.885498 
	C1249.984741,481.670898 1249.415283,491.150482 1243.890625,499.559387 
	C1236.432007,510.911774 1224.955200,515.968079 1212.352051,518.968384 
	C1194.798462,523.147034 1176.854370,522.685608 1159.119019,521.682434 
	C1148.468384,521.079956 1137.817139,517.962158 1127.495728,514.873596 
	C1119.506470,512.482910 1115.810669,505.315857 1114.131226,497.570587 
	C1113.167480,493.125610 1113.072998,488.434601 1113.068115,483.853882 
	C1113.062012,478.209442 1116.236816,475.869446 1121.527344,477.237030 
	C1131.990112,479.941528 1142.317261,483.379517 1152.922607,485.265350 
	C1163.970215,487.229797 1175.165405,489.521484 1186.572510,487.071136 
	C1191.319092,486.051575 1196.318848,486.099060 1200.984619,484.846344 
	C1205.742798,483.568970 1209.756470,480.113586 1209.698486,475.047119 
	C1209.641968,470.111572 1205.543091,467.177673 1200.832764,465.991058 
	C1191.134644,463.547852 1181.402344,461.231354 1171.647949,459.022278 
	C1158.430542,456.029022 1145.037476,453.866455 1133.320190,446.130066 
	C1122.310059,438.860504 1117.181396,428.888336 1116.956665,415.909851 
	C1116.801758,406.963501 1118.142822,398.599579 1122.643433,390.590332 
	C1127.607300,381.756439 1135.247681,376.565308 1144.188232,373.106506 
	C1155.687500,368.657837 1167.780884,367.101318 1180.109009,366.960846 
	C1196.383789,366.775391 1212.503662,367.098358 1228.090332,372.877808 
	C1235.838623,375.750793 1246.496216,385.854858 1245.028809,396.178528 
	C1244.819946,397.648224 1245.000732,399.173248 1244.999878,400.672638 
	C1244.995972,406.776642 1242.593750,408.981354 1236.590942,407.957489 
	C1227.799927,406.458130 1219.104370,404.000641 1210.261719,403.305664 
	C1199.485962,402.458771 1188.595459,402.823334 1177.763428,403.060852 
	C1173.436523,403.155762 1169.061768,404.023529 1164.840698,405.070953 
	C1161.298096,405.950073 1157.323486,408.059601 1158.299438,412.133759 
	C1159.001221,415.062836 1161.991699,418.644470 1164.781372,419.642517 
	C1172.494751,422.402039 1180.552979,424.431000 1188.629761,425.891296 
	C1203.660522,428.608826 1218.406372,431.991760 1232.186401,439.693909 
z"/>
<path fill="#0A406B" opacity="1.000000" stroke="none" 
	d="
M1300.242432,509.740784 
	C1292.577393,502.187256 1289.618530,492.791779 1288.056763,482.948425 
	C1284.371094,459.719696 1286.546387,436.284760 1286.006714,412.943115 
	C1285.957275,410.806305 1286.000000,408.667419 1286.000000,406.000000 
	C1281.597534,406.000000 1277.487915,406.000000 1273.378418,406.000000 
	C1263.332764,406.000000 1261.506348,404.644348 1261.116577,394.688782 
	C1260.853394,387.966858 1261.311768,381.157196 1262.136597,374.471863 
	C1262.746948,369.524139 1267.399414,369.326263 1271.164429,369.082428 
	C1276.269897,368.751801 1281.412964,369.000153 1287.000000,369.000153 
	C1287.000000,358.342102 1286.978882,348.062836 1287.009155,337.783722 
	C1287.023682,332.800232 1288.093750,328.208069 1293.392456,326.305389 
	C1295.797607,325.441711 1298.508057,325.028046 1301.068359,325.073242 
	C1308.153931,325.198303 1315.248779,325.484955 1322.309814,326.071564 
	C1327.318359,326.487640 1329.908447,331.232239 1329.980713,339.574921 
	C1330.063843,349.206390 1330.000000,358.839111 1330.000000,369.000000 
	C1342.085083,369.000000 1353.856079,369.006042 1365.627075,368.998077 
	C1374.963257,368.991760 1376.538086,371.060272 1376.955688,380.195587 
	C1377.198853,385.516357 1377.037109,390.857635 1376.990845,396.189087 
	C1376.928223,403.419373 1374.356934,405.992615 1367.268555,405.997894 
	C1356.604736,406.005859 1345.941040,406.000000 1335.277222,406.000000 
	C1333.656494,406.000000 1332.035767,406.000000 1330.000000,406.000000 
	C1330.000000,422.377808 1330.003174,438.328003 1329.998657,454.278198 
	C1329.996704,461.308044 1329.388916,468.413452 1333.338989,474.823761 
	C1336.809692,480.456055 1341.469360,484.407196 1348.354248,483.907593 
	C1355.815552,483.366180 1363.217285,482.037109 1370.660522,481.189056 
	C1373.125488,480.908264 1375.736328,480.634888 1378.089600,481.180634 
	C1379.277954,481.456207 1380.707764,483.477783 1380.895508,484.863373 
	C1383.867432,506.800110 1374.938599,517.018005 1355.669678,520.770569 
	C1343.097290,523.219055 1330.131714,523.350098 1317.490967,519.977966 
	C1310.944092,518.231506 1305.032471,515.241272 1300.242432,509.740784 
z"/>
<path fill="#0A406B" opacity="1.000000" stroke="none" 
	d="
M1024.332520,234.999878 
	C1015.540955,233.586655 1012.229797,233.484924 1012.082764,223.510315 
	C1011.541077,186.771835 1011.274292,150.028809 1011.053467,113.286591 
	C1011.012878,106.535942 1011.412598,99.755028 1012.098022,93.037994 
	C1012.508057,89.020287 1014.573792,85.380280 1019.149109,85.075157 
	C1028.034790,84.482567 1036.981934,83.754501 1045.844971,84.213432 
	C1052.798462,84.573471 1055.991089,89.513161 1055.993774,97.307480 
	C1056.007324,136.792557 1056.000000,176.277634 1056.000000,215.762711 
	C1056.000000,218.095169 1056.052612,220.429016 1055.990234,222.759811 
	C1055.786133,230.378250 1051.395752,234.839142 1043.787720,234.976501 
	C1037.458740,235.090759 1031.126343,234.999969 1024.332520,234.999878 
z"/>
<path fill="#0A406B" opacity="1.000000" stroke="none" 
	d="
M1044.470947,17.181454 
	C1061.707886,25.318136 1061.241089,47.537128 1050.280884,56.083805 
	C1040.858521,63.431129 1030.414673,63.563698 1019.506653,59.159321 
	C1012.066528,56.155163 1006.360718,47.192093 1007.066589,37.275265 
	C1008.060425,23.314188 1016.409729,16.414320 1030.176270,15.171689 
	C1034.725342,14.761069 1039.455444,16.354906 1044.470947,17.181454 
z"/>
<path fill="none" opacity="1.000000" stroke="none" 
	d="
M1474.000000,429.000000 
	C1462.858276,429.000000 1452.216553,429.000000 1441.545898,429.000000 
	C1445.402100,413.927490 1456.965088,400.720245 1482.546753,403.062622 
	C1497.976196,404.475403 1511.511108,411.425934 1514.426758,429.000000 
	C1501.102417,429.000000 1487.801147,429.000000 1474.000000,429.000000 
z"/>
<path fill="none" opacity="1.000000" stroke="none" 
	d="
M1323.276367,176.996979 
	C1330.634521,176.999466 1337.516846,176.999466 1344.997314,176.999466 
	C1344.997314,182.446701 1345.246826,186.733124 1344.857910,190.960815 
	C1344.726929,192.383835 1343.259277,194.159973 1341.918091,194.921722 
	C1328.855713,202.340393 1314.834229,204.841553 1300.080200,201.955093 
	C1295.609985,201.080536 1290.852539,199.820602 1287.128906,197.367538 
	C1279.202515,192.145874 1281.208252,183.331955 1288.686890,179.860214 
	C1290.977783,178.796814 1293.496948,177.730789 1295.956543,177.614105 
	C1304.894287,177.190109 1313.850952,177.168106 1323.276367,176.996979 
z"/>
</svg>