<?xml version="1.0" encoding="UTF-8"?>
<svg version="1.1" xmlns="http://www.w3.org/2000/svg" width="64" height="64" viewBox="15 45 180 130">
<path d="M0 0 C74.25 0 148.5 0 225 0 C225 74.25 225 148.5 225 225 C150.75 225 76.5 225 0 225 C0 150.75 0 76.5 0 0 Z " fill="#474DDF" transform="translate(0,0)"/>
<path d="M0 0 C8.25 0 16.5 0 25 0 C25 30.03 25 60.06 25 91 C16.75 91 8.5 91 0 91 C-0.33 78.13 -0.66 65.26 -1 52 C-7.14209729 63.60173933 -13.18094518 75.23352886 -19 87 C-19.66 88.32 -20.32 89.64 -21 91 C-29.25 91 -37.5 91 -46 91 C-44.48887979 86.46663936 -42.99230985 82.80601762 -40.8046875 78.6328125 C-40.34226402 77.74550446 -40.34226402 77.74550446 -39.87049866 76.840271 C-39.21462583 75.58276884 -38.55680971 74.32627858 -37.89718628 73.07073975 C-36.17156945 69.78601433 -34.45992133 66.49401203 -32.74609375 63.203125 C-32.41184891 62.56233002 -32.07760406 61.92153503 -31.73323059 61.26132202 C-29.4198498 56.82221495 -27.15168879 52.36423798 -24.9375 47.875 C-21.35809689 40.64265129 -17.65022755 33.47702706 -13.9375 26.3125 C-13.07016235 24.63679932 -13.07016235 24.63679932 -12.18530273 22.92724609 C-8.19645522 15.24388918 -4.11921434 7.61398726 0 0 Z " fill="#FAFBFD" transform="translate(93,67)"/>
<path d="M0 0 C7.92 0 15.84 0 24 0 C24 29.37 24 58.74 24 89 C16.08 89 8.16 89 0 89 C0 59.63 0 30.26 0 0 Z " fill="#FDFEFD" transform="translate(140,68)"/>
<path d="M0 0 C8.58 0 17.16 0 26 0 C26 30.03 26 60.06 26 91 C17.42 91 8.84 91 0 91 C-0.33 78.46 -0.66 65.92 -1 53 C-1.99 54.98 -2.98 56.96 -4 59 C-4.66 59 -5.32 59 -6 59 C-6.08765625 59.66773438 -6.1753125 60.33546875 -6.265625 61.0234375 C-7.21064611 64.85378901 -8.93791 68.14962301 -10.75 71.625 C-11.47554248 73.04346166 -12.19949481 74.46273777 -12.921875 75.8828125 C-13.45264648 76.92550293 -13.45264648 76.92550293 -13.99414062 77.98925781 C-16.13209741 82.26309569 -18.07327601 86.62781863 -20 91 C-20.33 91 -20.66 91 -21 91 C-21.25730329 84.08554297 -21.43019315 77.17235256 -21.54931641 70.25415039 C-21.59906025 67.90993141 -21.66688485 65.56601352 -21.75439453 63.22290039 C-22.32894849 47.4226666 -20.91472254 36.32036824 -12.24005127 22.94735718 C-10.51561839 20.23933467 -9.06759179 17.4129093 -7.6171875 14.55078125 C-7.19550293 13.74552002 -6.77381836 12.94025879 -6.33935547 12.1105957 C-5.85611816 11.18722412 -5.37288086 10.26385254 -4.875 9.3125 C-2.461875 4.7028125 -2.461875 4.7028125 0 0 Z M1 1 C1 30.37 1 59.74 1 90 C8.92 90 16.84 90 25 90 C25 60.63 25 31.26 25 1 C17.08 1 9.16 1 1 1 Z " fill="#8B9AF2" transform="translate(139,67)"/>
<path d="M0 0 C0.33 0 0.66 0 1 0 C1 13.53 1 27.06 1 41 C8.92 41 16.84 41 25 41 C23 43 23 43 20.47802734 43.22705078 C19.4411377 43.21657715 18.40424805 43.20610352 17.3359375 43.1953125 C16.21445313 43.18886719 15.09296875 43.18242187 13.9375 43.17578125 C12.761875 43.15902344 11.58625 43.14226562 10.375 43.125 C9.19164062 43.11597656 8.00828125 43.10695312 6.7890625 43.09765625 C3.85928943 43.07402905 0.92961986 43.03815713 -2 43 C-2 37.72 -2 32.44 -2 27 C-4.62113708 27 -6.50935112 27.31292445 -9 28 C-9.06058594 28.61488281 -9.12117187 29.22976562 -9.18359375 29.86328125 C-9.26738281 30.67152344 -9.35117188 31.47976562 -9.4375 32.3125 C-9.51871094 33.11300781 -9.59992188 33.91351563 -9.68359375 34.73828125 C-10 37 -10 37 -11 40 C-12.485 40.495 -12.485 40.495 -14 41 C-14 39.68 -14 38.36 -14 37 C-15.32 37.99 -16.64 38.98 -18 40 C-17.4485052 34.70729617 -15.62790435 30.81281511 -13.1875 26.1875 C-12.46074052 24.77551015 -11.73546932 23.36275325 -11.01171875 21.94921875 C-10.66415527 21.27294434 -10.3165918 20.59666992 -9.95849609 19.89990234 C-8.15709993 16.32922864 -6.57489682 12.67475924 -5 9 C-4.34 9 -3.68 9 -3 9 C-2.01 6.03 -1.02 3.06 0 0 Z " fill="#3852EA" transform="translate(138,117)"/>
<path d="M0 0 C0.33 0.66 0.66 1.32 1 2 C1.66 2 2.32 2 3 2 C3.02465392 6.53897705 3.04283789 11.07791543 3.05493164 15.61694336 C3.0599714 17.16219766 3.0668032 18.70744716 3.07543945 20.25268555 C3.08752076 22.46925029 3.09323173 24.68575218 3.09765625 26.90234375 C3.10281754 27.5971434 3.10797882 28.29194305 3.11329651 29.00779724 C3.11349277 30.6722933 3.06189129 32.33665499 3 34 C2.505 34.495 2.505 34.495 2 35 C1.63239269 37.32817964 1.29758419 39.6618385 1 42 C1.66 42 2.32 42 3 42 C3.78233554 48.07166138 4.09549483 53.86093731 3.87890625 59.97265625 C3.85529526 60.78117538 3.83168427 61.58969452 3.80735779 62.42271423 C3.73164383 64.96953073 3.64723147 67.51596923 3.5625 70.0625 C3.50918655 71.80401883 3.45644704 73.54555532 3.40429688 75.28710938 C3.27615609 79.52497252 3.14022125 83.76252007 3 88 C1.02 88.495 1.02 88.495 -1 89 C-0.67 59.63 -0.34 30.26 0 0 Z " fill="#354FE1" transform="translate(165,70)"/>
<path d="M0 0 C0.33 0 0.66 0 1 0 C1 13.86 1 27.72 1 42 C1.99 42.33 2.98 42.66 4 43 C1.36 43 -1.28 43 -4 43 C-4 36.4 -4 29.8 -4 23 C-4.66 24.32 -5.32 25.64 -6 27 C-7.32 26.34 -8.64 25.68 -10 25 C-8.04501554 15.87673918 -4.35038852 8.16442777 0 0 Z " fill="#324FE3" transform="translate(92,117)"/>
<path d="M0 0 C0.33 0 0.66 0 1 0 C1 13.53 1 27.06 1 41 C8.92 41 16.84 41 25 41 C23 43 23 43 20.47802734 43.22705078 C19.4411377 43.21657715 18.40424805 43.20610352 17.3359375 43.1953125 C16.21445313 43.18886719 15.09296875 43.18242187 13.9375 43.17578125 C12.761875 43.15902344 11.58625 43.14226562 10.375 43.125 C8.59996094 43.11146484 8.59996094 43.11146484 6.7890625 43.09765625 C3.85917477 43.07402812 0.9296866 43.04108514 -2 43 C-2 41.68 -2 40.36 -2 39 C-1.34 39 -0.68 39 0 39 C-0.09346313 34.76376458 -0.19953913 30.52809149 -0.31738281 26.29248047 C-0.35569674 24.8511626 -0.39054543 23.40974832 -0.421875 21.96826172 C-0.46747446 19.89776114 -0.52547444 17.82792567 -0.5859375 15.7578125 C-0.6173584 14.5114502 -0.6487793 13.26508789 -0.68115234 11.98095703 C-0.69682309 8.88458224 -0.69682309 8.88458224 -3 7 C-2.01 4.69 -1.02 2.38 0 0 Z " fill="#394FD6" transform="translate(138,117)"/>
<path d="M0 0 C0.66 0.33 1.32 0.66 2 1 C2.01458252 1.98919434 2.02916504 2.97838867 2.04418945 3.99755859 C2.1020897 7.66182919 2.17932152 11.32547985 2.26245117 14.98925781 C2.2957398 16.57606965 2.32375947 18.16300103 2.34643555 19.75 C2.37991078 22.02916484 2.4322186 24.30723041 2.48828125 26.5859375 C2.49467117 27.29744965 2.5010611 28.00896179 2.50764465 28.74203491 C2.54009648 30.9600456 2.54009648 30.9600456 3 34 C3.99 34.66 4.98 35.32 6 36 C3.36 36 0.72 36 -2 36 C-1.93941406 35.07703125 -1.87882812 34.1540625 -1.81640625 33.203125 C-1.10583625 22.14009674 -0.53322321 11.07289042 0 0 Z " fill="#3551EC" transform="translate(90,124)"/>
<path d="M0 0 C0.99 0.99 1.98 1.98 3 3 C4.32 3 5.64 3 7 3 C5.95518663 9.70880162 4.30199356 15.0564116 1 21 C0.67 21 0.34 21 0 21 C0 14.07 0 7.14 0 0 Z " fill="#3C51E6" transform="translate(119,85)"/>
<path d="M0 0 C0.66 0 1.32 0 2 0 C2.33 0.33 2.66 0.66 3 1 C3.99 1 4.98 1 6 1 C5.39254603 5.85963179 3.27241033 9.7405518 1 14 C0.01 14 -0.98 14 -2 14 C-2.05389087 12.04196493 -2.09274217 10.08351091 -2.125 8.125 C-2.14820313 7.03445312 -2.17140625 5.94390625 -2.1953125 4.8203125 C-2 2 -2 2 0 0 Z " fill="#3751E4" transform="translate(50,136)"/>
<path d="M0 0 C0.66 0.33 1.32 0.66 2 1 C2 4.3 2 7.6 2 11 C1.34 10.67 0.68 10.34 0 10 C-0.99 11.485 -0.99 11.485 -2 13 C-2.99 13 -3.98 13 -5 13 C-4.74379316 11.3934324 -4.46944129 9.7897517 -4.1875 8.1875 C-4.03667969 7.29417969 -3.88585937 6.40085938 -3.73046875 5.48046875 C-2.94604607 2.81678744 -2.11372201 1.74309678 0 0 Z " fill="#3B59E6" transform="translate(78,147)"/>
<path d="M0 0 C0.66 0.66 1.32 1.32 2 2 C2.33 1.34 2.66 0.68 3 0 C3.99 0 4.98 0 6 0 C4.45454854 5.47932789 1.84456788 10.11429181 -1 15 C-1.33 15 -1.66 15 -2 15 C-2.05406122 13.06280622 -2.09282025 11.12518079 -2.125 9.1875 C-2.14820312 8.10855469 -2.17140625 7.02960938 -2.1953125 5.91796875 C-2 3 -2 3 0 0 Z " fill="#434EDB" transform="translate(75,90)"/>
<path d="M0 0 C0.33 0 0.66 0 1 0 C1 13.53 1 27.06 1 41 C0.67 41 0.34 41 0 41 C-0.33 30.11 -0.66 19.22 -1 8 C-1.66 8 -2.32 8 -3 8 C-1.125 2.25 -1.125 2.25 0 0 Z " fill="#485CCB" transform="translate(92,117)"/>
<path d="M0 0 C0.66 0.66 1.32 1.32 2 2 C0.71319131 4.6274838 -0.57917678 7.25196683 -1.875 9.875 C-2.23980469 10.62136719 -2.60460937 11.36773437 -2.98046875 12.13671875 C-3.33496094 12.85214844 -3.68945312 13.56757813 -4.0546875 14.3046875 C-4.37937012 14.96452637 -4.70405273 15.62436523 -5.03857422 16.30419922 C-6 18 -6 18 -8 20 C-8 17.37886292 -7.68707555 15.49064888 -7 13 C-6.34 13 -5.68 13 -5 13 C-5.350625 12.401875 -5.70125 11.80375 -6.0625 11.1875 C-7 9 -7 9 -6 6 C-5.34 6.33 -4.68 6.66 -4 7 C-4 6.34 -4 5.68 -4 5 C-3.02149805 3.97895449 -2.02019573 2.9793879 -1 2 C-0.67 1.34 -0.34 0.68 0 0 Z " fill="#EEF6F7" transform="translate(81,134)"/>
<path d="M0 0 C1.32 0.66 2.64 1.32 4 2 C3.67 3.65 3.34 5.3 3 7 C2.34 7 1.68 7 1 7 C1 9.31 1 11.62 1 14 C0.34 14 -0.32 14 -1 14 C-1.38133299 12.0085944 -1.71325582 10.00720923 -2 8 C-1.67 7.67 -1.34 7.34 -1 7 C-1 6.01 -1 5.02 -1 4 C-1 1 -1 1 0 0 Z " fill="#3950E7" transform="translate(58,120)"/>
<path d="M0 0 C1.10370043 3.3111013 0.92673641 5.24748949 0.5625 8.6875 C0.46066406 9.68136719 0.35882813 10.67523438 0.25390625 11.69921875 C0.12822266 12.83810547 0.12822266 12.83810547 0 14 C-1.32 14.33 -2.64 14.66 -4 15 C-5.0686132 11.79416039 -5.31727934 9.72808505 -3.953125 6.59765625 C-2.69255716 4.35625332 -1.38949795 2.16357812 0 0 Z " fill="#F0F1F8" transform="translate(79,94)"/>
<path d="M0 0 C0.66 0.33 1.32 0.66 2 1 C-0.31 5.62 -2.62 10.24 -5 15 C-5.66 13.68 -6.32 12.36 -7 11 C-6.34 10.01 -5.68 9.02 -5 8 C-4.29835358 6.01200182 -3.62627128 4.01301483 -3 2 C-2.01 2 -1.02 2 0 2 C0 1.34 0 0.68 0 0 Z " fill="#E8EFF8" transform="translate(89,120)"/>
<path d="M0 0 C1.32 0.33 2.64 0.66 4 1 C3.34 3.97 2.68 6.94 2 10 C1.34 10 0.68 10 0 10 C-0.33 10.66 -0.66 11.32 -1 12 C-0.979375 11.278125 -0.95875 10.55625 -0.9375 9.8125 C-0.99820559 7.08074862 -1.39258535 4.65743909 -2 2 C-1.34 2 -0.68 2 0 2 C0 1.34 0 0.68 0 0 Z " fill="#3E50E6" transform="translate(66,104)"/>
<path d="M0 0 C0.66 0.33 1.32 0.66 2 1 C2 1.66 2 2.32 2 3 C1.34 3 0.68 3 0 3 C-0.103125 3.680625 -0.20625 4.36125 -0.3125 5.0625 C-1.14725019 8.62915989 -2.49472754 11.66222194 -4 15 C-4.66 15 -5.32 15 -6 15 C-6 15.66 -6 16.32 -6 17 C-6.66 16.67 -7.32 16.34 -8 16 C-5.36 10.72 -2.72 5.44 0 0 Z " fill="#3F58E1" transform="translate(128,137)"/>
<path d="M0 0 C2.475 0.99 2.475 0.99 5 2 C4.39816251 4.02045442 3.72693904 6.02111039 3 8 C2.01 8.495 2.01 8.495 1 9 C0.01 8.34 -0.98 7.68 -2 7 C-1.34 4.69 -0.68 2.38 0 0 Z " fill="#3351EC" transform="translate(84,135)"/>
<path d="M0 0 C-1.57344039 3.14688078 -4.27851951 4.79965407 -7 7 C-8 4 -8 4 -7.1875 1.875 C-5.07546934 -1.45978525 -3.47237148 -1.04171144 0 0 Z " fill="#ECF0F5" transform="translate(72,119)"/>
<path d="M0 0 C1.125 3.75 1.125 3.75 0 6 C-0.0396713 7.66619446 -0.04384447 9.33391013 0 11 C-0.99 11 -1.98 11 -3 11 C-4 8 -4 8 -3.22265625 5.95703125 C-2.83980469 5.24933594 -2.45695312 4.54164063 -2.0625 3.8125 C-1.68222656 3.09707031 -1.30195312 2.38164063 -0.91015625 1.64453125 C-0.60980469 1.10183594 -0.30945313 0.55914062 0 0 Z " fill="#4059E2" transform="translate(88,125)"/>
<path d="M0 0 C0 4.24645065 -1.81750806 6.38524772 -4 10 C-4.66 9.67 -5.32 9.34 -6 9 C-6 7.35 -6 5.7 -6 4 C-4.68 4 -3.36 4 -2 4 C-2.33 3.01 -2.66 2.02 -3 1 C-2.01 0.67 -1.02 0.34 0 0 Z " fill="#4B5BDD" transform="translate(70,110)"/>
<path d="M0 0 C0.66 0.99 1.32 1.98 2 3 C2.66 3.33 3.32 3.66 4 4 C4 5.65 4 7.3 4 9 C1 9 1 9 -0.6875 7.5 C-1.120625 7.005 -1.55375 6.51 -2 6 C-1.34 4.02 -0.68 2.04 0 0 Z " fill="#F0F0F8" transform="translate(92,68)"/>
<path d="M0 0 C0.66 0.33 1.32 0.66 2 1 C2 4.3 2 7.6 2 11 C1.01 10.67 0.02 10.34 -1 10 C-1.02689216 8.52093108 -1.04634621 7.04172517 -1.0625 5.5625 C-1.07410156 4.73878906 -1.08570312 3.91507813 -1.09765625 3.06640625 C-1 1 -1 1 0 0 Z " fill="#3353EE" transform="translate(78,147)"/>
<path d="M0 0 C1.125 3.75 1.125 3.75 0 6 C-0.66 6 -1.32 6 -2 6 C-2.33 7.65 -2.66 9.3 -3 11 C-3.66 11 -4.32 11 -5 11 C-3.77472971 6.94718288 -2.30119506 3.55639236 0 0 Z " fill="#D6E0F7" transform="translate(58,135)"/>
<path d="M0 0 C0.82638376 2.89234315 1 4.88742431 1 8 C-0.32 8.33 -1.64 8.66 -3 9 C-3 5.30581799 -1.71820705 3.22163822 0 0 Z " fill="#4C64D2" transform="translate(83,135)"/>
<path d="M0 0 C0.66 0.33 1.32 0.66 2 1 C1.67 2.98 1.34 4.96 1 7 C-0.32 7.33 -1.64 7.66 -3 8 C-1.125 2.25 -1.125 2.25 0 0 Z " fill="#ECF2F8" transform="translate(62,127)"/>
<path d="M0 0 C2.64 0 5.28 0 8 0 C7.67 0.99 7.34 1.98 7 3 C6.01 3.33 5.02 3.66 4 4 C3.67 3.34 3.34 2.68 3 2 C2.01 2 1.02 2 0 2 C0 1.34 0 0.68 0 0 Z " fill="#3551ED" transform="translate(40,152)"/>
<path d="M0 0 C0.66 0.33 1.32 0.66 2 1 C0.92598892 3.91517292 0.22189824 5.77810176 -2 8 C-2.125 5.125 -2.125 5.125 -2 2 C-1.34 1.34 -0.68 0.68 0 0 Z " fill="#535AD6" transform="translate(75,97)"/>
<path d="M0 0 C1.0625 1.8125 1.0625 1.8125 2 4 C1.67 4.99 1.34 5.98 1 7 C0.01 7 -0.98 7 -2 7 C-1.125 2.25 -1.125 2.25 0 0 Z " fill="#E8EFF5" transform="translate(50,150)"/>
<path d="M0 0 C0.99 0 1.98 0 3 0 C2.39816251 2.02045442 1.72693904 4.02111039 1 6 C0.01 6.495 0.01 6.495 -1 7 C-0.67 4.69 -0.34 2.38 0 0 Z " fill="#5558D0" transform="translate(78,90)"/>
</svg>
