<?xml version="1.0" encoding="UTF-8"?>
<svg version="1.1" xmlns="http://www.w3.org/2000/svg" width="200" height="200">
<path d="M0 0 C66 0 132 0 200 0 C200 66 200 132 200 200 C134 200 68 200 0 200 C0 134 0 68 0 0 Z " fill="#FDFDFE" transform="translate(0,0)"/>
<path d="M0 0 C0.99 0 1.98 0 3 0 C7.50960377 9.01531403 12.01549965 18.03246512 16.51583958 27.05240726 C19.83206649 33.69894915 23.15016141 40.344557 26.46899319 46.98979855 C28.6899264 51.43693374 30.91008775 55.88445117 33.12866211 60.33276367 C35.29527664 64.67681318 37.46381295 69.0198982 39.63371468 73.36230659 C40.45696648 75.01065913 41.2795136 76.6593638 42.10134697 78.308424 C43.2407733 80.59448004 44.3826516 82.87929471 45.52514648 85.16381836 C46.03389313 86.18670456 46.03389313 86.18670456 46.55291748 87.23025513 C47.97264986 90.32016261 47.97264986 90.32016261 50 93 C53.33290906 86.35776491 56.66340796 79.71432565 59.99115467 73.06950283 C61.53784714 69.98124939 63.08524893 66.89335649 64.63452148 63.80639648 C71.77082974 49.58575022 78.81915349 35.33092565 85.63476562 20.953125 C88.97851361 13.91342636 92.47854327 6.95210226 96 0 C96.99 0 97.98 0 99 0 C100.8361734 7.71736415 102.08387391 15.48536991 103.27734375 23.32421875 C103.49129176 24.71599997 103.70545339 26.10774837 103.91981506 27.49946594 C104.36794471 30.41317677 104.81403213 33.32719032 105.25854492 36.24145508 C105.8177502 39.90709945 106.38118157 43.57207782 106.94602299 47.23685741 C109.10226607 61.23466433 111.23893231 75.23229604 113.08677673 89.27494812 C113.68492775 93.80987988 114.36756847 98.31077821 115.1875 102.8125 C116.03053833 107.61294141 116.16228901 112.13132972 116 117 C112.04 117 108.08 117 104 117 C103.87995605 116.16903809 103.75991211 115.33807617 103.63623047 114.48193359 C103.05164414 110.44592317 102.46377712 106.41040076 101.875 102.375 C101.71192856 101.25436157 101.71192856 101.25436157 101.54556274 100.11108398 C100.20869911 90.94026512 98.81977035 81.78044703 97.33203125 72.6328125 C97.19458496 71.78318939 97.05713867 70.93356628 96.91552734 70.05819702 C96.24677067 65.92693486 95.57014928 61.79723755 94.88037109 57.66943359 C93.63152278 50.05911427 92.66718884 42.73979439 93 35 C92.34 35 91.68 35 91 35 C90.73098877 35.86020752 90.46197754 36.72041504 90.18481445 37.60668945 C89.00683029 40.98043804 87.61060826 44.08304022 86.04296875 47.29296875 C85.7473555 47.9008725 85.45174225 48.50877625 85.14717102 49.13510132 C84.16414868 51.15431228 83.17584878 53.17089153 82.1875 55.1875 C81.49186592 56.6136941 80.79656141 58.040049 80.1015625 59.46655273 C78.58085521 62.58589829 77.0576837 65.7040247 75.53271484 68.82128906 C72.77444052 74.45969628 70.02198249 80.10093598 67.26953125 85.7421875 C62.18394374 96.16353989 57.0932779 106.58240431 52 117 C49.76496887 116.96607971 49.76496887 116.96607971 47 116 C45.32469831 113.50473205 44.04645386 111.23150163 42.76049805 108.54272461 C42.17418861 107.3720771 42.17418861 107.3720771 41.57603455 106.17778015 C40.28734882 103.59413479 39.02463478 100.99866996 37.76171875 98.40234375 C36.87362612 96.60937416 35.98394124 94.81719243 35.09272766 93.02577209 C32.75056296 88.3070681 30.4302182 83.57795296 28.11419678 78.84637451 C25.74737417 74.02068902 23.36015388 69.20512182 20.97460938 64.38867188 C16.29634229 54.93559398 11.64105529 45.47139639 7 36 C5.27851482 39.44297037 5.25951755 43.39673946 4.8125 47.1875 C4.55016218 49.33732304 4.28706695 51.48705372 4.0234375 53.63671875 C3.86842773 54.90692871 3.71341797 56.17713867 3.55371094 57.48583984 C2.49993218 66.09398378 1.42444243 74.69939005 0.33920288 83.30361938 C0.07234123 85.42705804 -0.1926261 87.55073565 -0.45565796 89.6746521 C-0.83177247 92.71077469 -1.21408493 95.74606164 -1.59765625 98.78125 C-1.76477615 100.14737175 -1.76477615 100.14737175 -1.93527222 101.54109192 C-2.61061228 106.8248685 -3.60431901 111.8579781 -5 117 C-8.63 117 -12.26 117 -16 117 C-16.35409619 109.13906468 -15.15560275 101.64065672 -13.8921814 93.90682983 C-13.19776389 89.64516729 -12.53008521 85.37933895 -11.86328125 81.11328125 C-11.71727982 80.18014603 -11.57127838 79.2470108 -11.42085266 78.28559875 C-9.37506396 65.10585017 -7.53856803 51.89571181 -5.6875 38.6875 C-5.51105957 37.43517578 -5.33461914 36.18285156 -5.15283203 34.89257812 C-4.64508731 31.2867862 -4.14032571 27.68059068 -3.63671875 24.07421875 C-3.41051094 22.4669416 -3.41051094 22.4669416 -3.17973328 20.82719421 C-2.40062751 15.21093487 -1.73057076 9.60931967 -1.25886536 3.95832825 C-1 2 -1 2 0 0 Z " fill="#111765" transform="translate(52,44)"/>
<path d="M0 0 C20.46 0 40.92 0 62 0 C51.75335787 22.77031585 51.75335787 22.77031585 47.5 31.0625 C43.43965385 39.06006424 39.53220938 47.11171103 35.81640625 55.27563477 C33.21558706 60.89220647 33.21558706 60.89220647 31 62 C23.96569816 48.59897883 16.99234438 35.16593081 10.05459595 21.71469116 C9.18360334 20.02745243 8.31118242 18.34095027 7.43734741 16.65518188 C6.19912668 14.26559862 4.96612995 11.87338987 3.734375 9.48046875 C3.16802086 8.39129654 3.16802086 8.39129654 2.59022522 7.28012085 C0 2.22824936 0 2.22824936 0 0 Z " fill="#B40707" transform="translate(70,46)"/>
<path d="M0 0 C20.46 0 40.92 0 62 0 C61.34 0.99 60.68 1.98 60 3 C60 2.34 60 1.68 60 1 C31.785 1.495 31.785 1.495 3 2 C3.99 3.65 4.98 5.3 6 7 C6.6875 10.3125 6.6875 10.3125 7 13 C7.66 13 8.32 13 9 13 C9 14.65 9 16.3 9 18 C6.44624385 14.82505993 4.62552847 11.51896339 2.8125 7.875 C2.28269531 6.82054687 1.75289063 5.76609375 1.20703125 4.6796875 C0 2 0 2 0 0 Z " fill="#9C1F20" transform="translate(70,46)"/>
<path d="M0 0 C1.15308018 4.61232071 0.60147965 6.59593097 -1 11 C-2.5 12.625 -2.5 12.625 -4 14 C-5.29660434 16.49034386 -5.29660434 16.49034386 -6 19 C-5.67 19.66 -5.34 20.32 -5 21 C-5.99 21.66 -6.98 22.32 -8 23 C-8.33 23.99 -8.66 24.98 -9 26 C-9.66 26 -10.32 26 -11 26 C-11 26.66 -11 27.32 -11 28 C-11.66 27.67 -12.32 27.34 -13 27 C-6.565 13.635 -6.565 13.635 0 0 Z " fill="#1F2362" transform="translate(133,74)"/>
<path d="M0 0 C0.99 0 1.98 0 3 0 C4.20272819 2.40545638 4.10071472 3.94996953 4.0625 6.625 C4.05347656 7.44226562 4.04445312 8.25953125 4.03515625 9.1015625 C4.02355469 9.72804688 4.01195312 10.35453125 4 11 C3.67 9.68 3.34 8.36 3 7 C1.08533633 7.12177688 1.08533633 7.12177688 -1 8 C-2.77148372 10.47933197 -2.77148372 10.47933197 -4 13 C-4.66 12.67 -5.32 12.34 -6 12 C-4.02 8.04 -2.04 4.08 0 0 Z " fill="#1E2261" transform="translate(148,44)"/>
<path d="M0 0 C1.98 0 3.96 0 6 0 C5.49487476 6.22987798 2.67395877 11.45474233 0 17 C-0.87776229 13.85577687 -0.97911796 12.13317747 0 9 C0.185625 8.2575 0.37125 7.515 0.5625 6.75 C0.706875 6.1725 0.85125 5.595 1 5 C0.67 5 0.34 5 0 5 C0 3.35 0 1.7 0 0 Z " fill="#AD1114" transform="translate(124,47)"/>
<path d="M0 0 C2 2 2 2 2.25 5.375 C2 9 2 9 0 13 C3.3 13 6.6 13 10 13 C10 13.66 10 14.32 10 15 C6.37 15 2.74 15 -1 15 C-1.07822869 9.83690648 -1.04225175 5.08097726 0 0 Z " fill="#2B2E68" transform="translate(37,146)"/>
<path d="M0 0 C-0.60745397 4.85963179 -2.72758967 8.7405518 -5 13 C-5.66 12.67 -6.32 12.34 -7 12 C-6.44661458 10.01432292 -5.89322917 8.02864583 -5.33984375 6.04296875 C-4.80436183 3.80755841 -4.80436183 3.80755841 -6 1 C-3.92446352 0.4465236 -2.15634036 0 0 0 Z " fill="#1E2268" transform="translate(137,91)"/>
<path d="M0 0 C2.9609375 2.6796875 2.9609375 2.6796875 3.3125 5.5625 C3 8 3 8 1 10 C0.28591666 11.98356483 -0.38617742 13.98315437 -1 16 C-2.55373847 12.89252306 -1.58528628 10.25773473 -1.0625 6.875 C-0.86785156 5.59367187 -0.67320313 4.31234375 -0.47265625 2.9921875 C-0.31667969 2.00476563 -0.16070312 1.01734375 0 0 Z " fill="#191D61" transform="translate(47,78)"/>
<path d="M0 0 C0.66 0.66 1.32 1.32 2 2 C-0.31 6.62 -2.62 11.24 -5 16 C-5.33 15.01 -5.66 14.02 -6 13 C-5 11 -4 9 -3 7 C-2.74715633 4.24853726 -2.74715633 4.24853726 -3 2 C-2.34 2 -1.68 2 -1 2 C-0.67 1.34 -0.34 0.68 0 0 Z " fill="#A72224" transform="translate(109,89)"/>
<path d="M0 0 C3.2910841 3.60957611 4.54663921 6.12637153 5 11 C5.66 11 6.32 11 7 11 C7 12.65 7 14.3 7 16 C3.04961337 11.25953605 0 6.21355834 0 0 Z " fill="#A82222" transform="translate(72,48)"/>
<path d="M0 0 C0.66 0 1.32 0 2 0 C3.49524178 2.2727675 4.78399715 4.5679943 6 7 C4.35 7.33 2.7 7.66 1 8 C-0.42944945 5.64561267 -1.08661261 4.51967567 -0.625 1.75 C-0.41875 1.1725 -0.2125 0.595 0 0 Z " fill="#1E236A" transform="translate(97,132)"/>
<path d="M0 0 C0.66 0 1.32 0 2 0 C2 0.66 2 1.32 2 2 C2.66 2 3.32 2 4 2 C4.33 2.99 4.66 3.98 5 5 C4.525625 5.45375 4.05125 5.9075 3.5625 6.375 C1.90972192 7.93258204 1.90972192 7.93258204 1 10 C0.34 9.67 -0.32 9.34 -1 9 C-0.67 6.03 -0.34 3.06 0 0 Z " fill="#0A1260" transform="translate(86,121)"/>
<path d="M0 0 C0.99 0 1.98 0 3 0 C3.66 1.98 4.32 3.96 5 6 C4.34 6 3.68 6 3 6 C3 5.01 3 4.02 3 3 C2.34 3 1.68 3 1 3 C1 4.65 1 6.3 1 8 C0.34 8 -0.32 8 -1 8 C-1.125 2.25 -1.125 2.25 0 0 Z " fill="#252A65" transform="translate(52,44)"/>
<path d="M0 0 C0.66 0.66 1.32 1.32 2 2 C1.01 3.98 0.02 5.96 -1 8 C-2.32 7.34 -3.64 6.68 -5 6 C-3.63016497 2.83884224 -3.0109362 2.0072908 0 0 Z " fill="#1B1E66" transform="translate(129,104)"/>
<path d="M0 0 C2.97069541 2.54631035 4.4775751 5.42230149 6 9 C5.67 9.66 5.34 10.32 5 11 C4.01 10.34 3.02 9.68 2 9 C1.8125 6.375 1.8125 6.375 2 4 C1.34 4 0.68 4 0 4 C0 2.68 0 1.36 0 0 Z " fill="#F6D5D4" transform="translate(79,66)"/>
<path d="M0 0 C3.47340125 1.3893605 4.51794756 2.61245157 6 6 C6.66 6.66 7.32 7.32 8 8 C5.6875 7.9375 5.6875 7.9375 3 7 C1.1875 3.4375 1.1875 3.4375 0 0 Z " fill="#242766" transform="translate(96,153)"/>
<path d="M0 0 C0.66 0.33 1.32 0.66 2 1 C0.68 3.64 -0.64 6.28 -2 9 C-2.66 8.67 -3.32 8.34 -4 8 C-4 6.68 -4 5.36 -4 4 C-3.34 4 -2.68 4 -2 4 C-2 3.34 -2 2.68 -2 2 C-1.34 2 -0.68 2 0 2 C0 1.34 0 0.68 0 0 Z " fill="#26296D" transform="translate(109,146)"/>
<path d="M0 0 C0.66 1.32 1.32 2.64 2 4 C0.7260411 6.03833424 -0.61061923 8.03852126 -2 10 C-2.66 10 -3.32 10 -4 10 C-2.8905928 6.51329166 -1.73662334 3.22515763 0 0 Z " fill="#F6D9D6" transform="translate(116,78)"/>
<path d="M0 0 C0.33 0.66 0.66 1.32 1 2 C0.01 2.66 -0.98 3.32 -2 4 C-2.33 4.99 -2.66 5.98 -3 7 C-3.66 7 -4.32 7 -5 7 C-5 7.66 -5 8.32 -5 9 C-5.66 8.67 -6.32 8.34 -7 8 C-3.375 1.125 -3.375 1.125 0 0 Z " fill="#161962" transform="translate(127,93)"/>
<path d="M0 0 C0.33 0.99 0.66 1.98 1 3 C0.01 4.485 0.01 4.485 -1 6 C-1.99 5.67 -2.98 5.34 -4 5 C-4 4.01 -4 3.02 -4 2 C-2.68 1.34 -1.36 0.68 0 0 Z " fill="#151A5E" transform="translate(105,154)"/>
</svg>
